<svg width="598" height="88" viewBox="0 0 598 88" fill="none" xmlns="http://www.w3.org/2000/svg">
<path d="M573.078 68.8176C569.989 68.8176 567.197 68.2464 564.701 67.104C562.204 65.9405 560.226 64.2587 558.767 62.0586C557.328 59.8585 556.609 57.1613 556.609 53.967C556.609 51.2169 557.138 48.9533 558.195 47.1763C559.253 45.3993 560.681 43.9925 562.479 42.9559C564.277 41.9194 566.287 41.1366 568.508 40.6078C570.73 40.0789 572.993 39.677 575.299 39.402C578.218 39.0635 580.588 38.7885 582.407 38.5769C584.226 38.3442 585.548 37.974 586.373 37.4663C587.198 36.9586 587.611 36.1336 587.611 34.9912V34.7691C587.611 31.9978 586.828 29.8506 585.263 28.3275C583.719 26.8043 581.413 26.0428 578.345 26.0428C575.151 26.0428 572.633 26.7515 570.793 28.1688C568.974 29.565 567.715 31.1199 567.017 32.8334L558.1 30.8026C559.158 27.8409 560.702 25.4504 562.733 23.6311C564.785 21.7907 567.144 20.4579 569.809 19.6329C572.475 18.7867 575.278 18.3636 578.218 18.3636C580.165 18.3636 582.227 18.5963 584.406 19.0617C586.606 19.506 588.658 20.331 590.562 21.5368C592.487 22.7426 594.063 24.4667 595.29 26.7091C596.517 28.9304 597.131 31.818 597.131 35.372V67.7387H587.865V61.0749H587.484C586.871 62.3019 585.95 63.5077 584.723 64.6924C583.496 65.8771 581.92 66.8607 579.995 67.6435C578.07 68.4262 575.764 68.8176 573.078 68.8176ZM575.14 61.2019C577.763 61.2019 580.006 60.6836 581.867 59.647C583.75 58.6104 585.178 57.2565 586.151 55.5853C587.146 53.8929 587.643 52.0842 587.643 50.1591V43.8762C587.304 44.2146 586.648 44.532 585.675 44.8281C584.723 45.1031 583.634 45.3464 582.407 45.558C581.18 45.7484 579.985 45.9282 578.821 46.0974C577.658 46.2455 576.685 46.3724 575.902 46.4782C574.061 46.7109 572.38 47.1023 570.857 47.6523C569.355 48.2023 568.149 48.9956 567.239 50.0322C566.351 51.0476 565.906 52.4015 565.906 54.0939C565.906 56.4421 566.774 58.2191 568.508 59.4249C570.243 60.6095 572.454 61.2019 575.14 61.2019Z" fill="#948607"/>
<path d="M525.035 67.7387V18.9983H534.206V26.7409H534.714C535.602 24.1177 537.168 22.0551 539.41 20.5531C541.674 19.03 544.233 18.2684 547.089 18.2684C547.682 18.2684 548.38 18.2896 549.184 18.3319C550.009 18.3742 550.654 18.4271 551.119 18.4906V27.5659C550.738 27.4601 550.061 27.3438 549.088 27.2169C548.115 27.0688 547.142 26.9947 546.169 26.9947C543.927 26.9947 541.927 27.4707 540.172 28.4227C538.437 29.3535 537.062 30.6545 536.046 32.3257C535.031 33.9758 534.523 35.8586 534.523 37.974V67.7387H525.035Z" fill="#948607"/>
<path d="M491.725 68.7224C487.155 68.7224 483.168 67.6752 479.762 65.5809C476.356 63.4866 473.712 60.5566 471.829 56.7911C469.946 53.0256 469.005 48.6254 469.005 43.5906C469.005 38.5346 469.946 34.1133 471.829 30.3266C473.712 26.5399 476.356 23.5994 479.762 21.5051C483.168 19.4108 487.155 18.3636 491.725 18.3636C496.294 18.3636 500.282 19.4108 503.688 21.5051C507.094 23.5994 509.738 26.5399 511.621 30.3266C513.504 34.1133 514.445 38.5346 514.445 43.5906C514.445 48.6254 513.504 53.0256 511.621 56.7911C509.738 60.5566 507.094 63.4866 503.688 65.5809C500.282 67.6752 496.294 68.7224 491.725 68.7224ZM491.757 60.7576C494.718 60.7576 497.172 59.9749 499.118 58.4094C501.065 56.844 502.503 54.7603 503.434 52.1582C504.386 49.5562 504.862 46.6897 504.862 43.5589C504.862 40.4491 504.386 37.5932 503.434 34.9912C502.503 32.368 501.065 30.2631 499.118 28.6765C497.172 27.0899 494.718 26.2966 491.757 26.2966C488.774 26.2966 486.299 27.0899 484.331 28.6765C482.385 30.2631 480.936 32.368 479.984 34.9912C479.053 37.5932 478.588 40.4491 478.588 43.5589C478.588 46.6897 479.053 49.5562 479.984 52.1582C480.936 54.7603 482.385 56.844 484.331 58.4094C486.299 59.9749 488.774 60.7576 491.757 60.7576Z" fill="#948607"/>
<path d="M436.479 87.0317C432.608 87.0317 429.276 86.524 426.484 85.5086C423.712 84.4932 421.449 83.1499 419.693 81.4786C417.937 79.8074 416.626 77.9775 415.758 75.989L423.913 72.6254C424.485 73.5562 425.246 74.5399 426.198 75.5765C427.171 76.6342 428.483 77.5333 430.133 78.2737C431.804 79.0141 433.951 79.3843 436.575 79.3843C440.171 79.3843 443.143 78.5064 445.491 76.7506C447.839 75.0159 449.013 72.2446 449.013 68.4368V58.8537H448.411C447.839 59.8903 447.014 61.0432 445.935 62.3125C444.878 63.5818 443.418 64.6818 441.556 65.6126C439.695 66.5434 437.273 67.0088 434.29 67.0088C430.44 67.0088 426.97 66.1098 423.882 64.3116C420.814 62.4923 418.381 59.8162 416.583 56.2834C414.806 52.7294 413.918 48.361 413.918 43.1781C413.918 37.9952 414.796 33.5527 416.552 29.8506C418.329 26.1485 420.761 23.3138 423.85 21.3464C426.939 19.3579 430.44 18.3636 434.353 18.3636C437.378 18.3636 439.822 18.8713 441.683 19.8868C443.545 20.881 444.994 22.0445 446.031 23.3773C447.088 24.71 447.903 25.8841 448.474 26.8995H449.172V18.9983H458.47V68.8176C458.47 73.0062 457.496 76.4438 455.55 79.1305C453.604 81.8171 450.97 83.8057 447.649 85.0961C444.349 86.3865 440.626 87.0317 436.479 87.0317ZM436.384 59.1393C439.113 59.1393 441.419 58.5046 443.302 57.2354C445.206 55.9449 446.644 54.1045 447.617 51.714C448.612 49.3024 449.109 46.4147 449.109 43.0511C449.109 39.7722 448.622 36.8845 447.649 34.3883C446.676 31.892 445.248 29.9458 443.365 28.5496C441.482 27.1322 439.155 26.4236 436.384 26.4236C433.528 26.4236 431.148 27.164 429.244 28.6448C427.34 30.1045 425.902 32.093 424.929 34.6104C423.977 37.1278 423.501 39.9414 423.501 43.0511C423.501 46.2455 423.987 49.0485 424.961 51.4601C425.934 53.8718 427.372 55.7545 429.276 57.1084C431.201 58.4623 433.571 59.1393 436.384 59.1393Z" fill="#948607"/>
<path d="M393.792 67.7387V18.9982H403.28V67.7387H393.792ZM398.583 11.4778C396.933 11.4778 395.516 10.9277 394.331 9.82768C393.168 8.70649 392.586 7.37374 392.586 5.82945C392.586 4.264 393.168 2.93126 394.331 1.83121C395.516 0.710013 396.933 0.149414 398.583 0.149414C400.233 0.149414 401.64 0.710013 402.804 1.83121C403.988 2.93126 404.581 4.264 404.581 5.82945C404.581 7.37374 403.988 8.70649 402.804 9.82768C401.64 10.9277 400.233 11.4778 398.583 11.4778Z" fill="#948607"/>
<path d="M314.819 67.7387V18.9983H323.926V26.9313H324.529C325.544 24.2446 327.205 22.1503 329.511 20.6483C331.816 19.1252 334.577 18.3636 337.793 18.3636C341.05 18.3636 343.779 19.1252 345.979 20.6483C348.201 22.1715 349.84 24.2658 350.898 26.9313H351.406C352.569 24.3292 354.42 22.2561 356.959 20.7118C359.497 19.1463 362.522 18.3636 366.034 18.3636C370.455 18.3636 374.062 19.7492 376.855 22.5205C379.668 25.2918 381.075 29.4698 381.075 35.0547V67.7387H371.587V35.9432C371.587 32.643 370.688 30.2526 368.89 28.7717C367.092 27.2909 364.945 26.5505 362.448 26.5505C359.36 26.5505 356.959 27.5024 355.245 29.4064C353.532 31.2891 352.675 33.7113 352.675 36.673V67.7387H343.219V35.3403C343.219 32.6959 342.394 30.5699 340.744 28.9621C339.094 27.3544 336.946 26.5505 334.302 26.5505C332.504 26.5505 330.843 27.0265 329.32 27.9784C327.818 28.9092 326.602 30.2102 325.671 31.8815C324.761 33.5527 324.307 35.4883 324.307 37.6884V67.7387H314.819Z" fill="#948607"/>
<path d="M292.551 47.5254V18.9983H302.07V67.7387H292.741V59.298H292.233C291.112 61.9 289.314 64.0683 286.839 65.803C284.385 67.5165 281.328 68.3733 277.668 68.3733C274.537 68.3733 271.766 67.6858 269.355 66.3107C266.964 64.9145 265.081 62.8519 263.706 60.123C262.352 57.394 261.675 54.0199 261.675 50.0005V18.9983H271.163V48.8581C271.163 52.1794 272.084 54.8237 273.924 56.7911C275.764 58.7585 278.155 59.7422 281.095 59.7422C282.872 59.7422 284.639 59.298 286.395 58.4095C288.172 57.521 289.642 56.1776 290.805 54.3795C291.99 52.5813 292.572 50.2966 292.551 47.5254Z" fill="#948607"/>
<path d="M203.971 67.7387V2.75143H227.77C232.381 2.75143 236.2 3.513 239.225 5.03614C242.25 6.53812 244.514 8.57955 246.016 11.1604C247.518 13.7201 248.269 16.6078 248.269 19.8233C248.269 22.5311 247.771 24.8158 246.777 26.6774C245.783 28.5179 244.45 29.9987 242.779 31.1199C241.129 32.2199 239.31 33.0238 237.321 33.5315V34.1662C239.479 34.2719 241.584 34.97 243.636 36.2605C245.709 37.5297 247.422 39.3385 248.776 41.6866C250.13 44.0348 250.807 46.8907 250.807 50.2543C250.807 53.5756 250.024 56.5584 248.459 59.2027C246.915 61.8259 244.524 63.9097 241.288 65.4539C238.051 66.9771 233.915 67.7387 228.88 67.7387H203.971ZM213.776 59.3297H227.928C232.625 59.3297 235.988 58.42 238.019 56.6007C240.05 54.7814 241.065 52.5073 241.065 49.7783C241.065 47.7263 240.547 45.8435 239.511 44.13C238.474 42.4165 236.993 41.052 235.068 40.0366C233.164 39.0212 230.901 38.5134 228.277 38.5134H213.776V59.3297ZM213.776 30.866H226.913C229.113 30.866 231.091 30.4429 232.847 29.5967C234.624 28.7506 236.031 27.5659 237.067 26.0427C238.125 24.4985 238.654 22.6792 238.654 20.5848C238.654 17.8982 237.712 15.6452 235.83 13.8259C233.947 12.0066 231.059 11.097 227.167 11.097H213.776V30.866Z" fill="#948607"/>
<path d="M147.67 2.75143L160.998 48.5725H161.505L174.833 2.75143H194.761L173.31 67.7387H149.193L127.742 2.75143H147.67Z" fill="#083493"/>
<path d="M66.0236 67.7387V2.75143H83.6666V29.0256H84.5551L104.102 2.75143H124.664L102.706 31.6911L125.172 67.7387H104.102L89.5053 43.3684L83.6666 50.9841V67.7387H66.0236Z" fill="#083493"/>
<path d="M25.4939 67.7387H0.489014V2.75143H25.24C31.9249 2.75143 37.7001 4.05245 42.5657 6.65448C47.4524 9.23535 51.218 12.9586 53.8623 17.8242C56.5278 22.6686 57.8605 28.4755 57.8605 35.245C57.8605 42.0145 56.5384 47.8321 53.894 52.6977C51.2497 57.5421 47.5053 61.2653 42.6609 63.8673C37.8165 66.4482 32.0941 67.7387 25.4939 67.7387ZM18.132 52.7611H24.8592C28.0747 52.7611 30.8143 52.2428 33.0778 51.2063C35.3625 50.1697 37.0972 48.3821 38.2819 45.8435C39.4877 43.305 40.0906 39.7721 40.0906 35.245C40.0906 30.7179 39.4771 27.1851 38.2501 24.6465C37.0443 22.108 35.2673 20.3204 32.9192 19.2838C30.5921 18.2472 27.7363 17.729 24.3515 17.729H18.132V52.7611Z" fill="#083493"/>
</svg>
